<mxfile host="app.diagrams.net" agent="Mozilla/5.0 (Windows NT 10.0; Win64; x64) AppleWebKit/537.36 (KHTML, like Gecko) Chrome/129.0.0.0 Safari/537.36 Edg/129.0.0.0" version="24.7.16">
  <diagram name="Page-1" id="xkLPUJNAkcuj4JkYRtg2">
    <mxGraphModel dx="2076" dy="665" grid="1" gridSize="10" guides="1" tooltips="1" connect="1" arrows="1" fold="1" page="1" pageScale="1" pageWidth="850" pageHeight="1100" math="0" shadow="0">
      <root>
        <mxCell id="0" />
        <mxCell id="1" parent="0" />
        <mxCell id="x2EQDOQUz10aYYluBtPl-1" value="Actor" style="shape=umlActor;verticalLabelPosition=bottom;verticalAlign=top;html=1;" parent="1" vertex="1">
          <mxGeometry x="40" y="40" width="30" height="60" as="geometry" />
        </mxCell>
        <mxCell id="x2EQDOQUz10aYYluBtPl-5" value="Controller" style="rounded=0;whiteSpace=wrap;html=1;" parent="1" vertex="1">
          <mxGeometry x="180" y="40" width="120" height="60" as="geometry" />
        </mxCell>
        <mxCell id="x2EQDOQUz10aYYluBtPl-6" value="Validation Service checks constraints " style="rounded=0;whiteSpace=wrap;html=1;" parent="1" vertex="1">
          <mxGeometry x="350" y="40" width="120" height="60" as="geometry" />
        </mxCell>
        <mxCell id="x2EQDOQUz10aYYluBtPl-7" value="Database" style="rounded=0;whiteSpace=wrap;html=1;" parent="1" vertex="1">
          <mxGeometry x="690" y="40" width="120" height="60" as="geometry" />
        </mxCell>
        <mxCell id="x2EQDOQUz10aYYluBtPl-8" value="" style="endArrow=none;dashed=1;html=1;rounded=0;entryX=0.5;entryY=1;entryDx=0;entryDy=0;" parent="1" source="x2EQDOQUz10aYYluBtPl-47" target="x2EQDOQUz10aYYluBtPl-5" edge="1">
          <mxGeometry width="50" height="50" relative="1" as="geometry">
            <mxPoint x="240" y="630" as="sourcePoint" />
            <mxPoint x="410" y="160" as="targetPoint" />
          </mxGeometry>
        </mxCell>
        <mxCell id="x2EQDOQUz10aYYluBtPl-9" value="" style="endArrow=none;dashed=1;html=1;rounded=0;" parent="1" target="x2EQDOQUz10aYYluBtPl-1" edge="1">
          <mxGeometry width="50" height="50" relative="1" as="geometry">
            <mxPoint x="55" y="1800" as="sourcePoint" />
            <mxPoint x="290" y="120" as="targetPoint" />
          </mxGeometry>
        </mxCell>
        <mxCell id="x2EQDOQUz10aYYluBtPl-10" value="" style="endArrow=none;dashed=1;html=1;rounded=0;entryX=0.5;entryY=1;entryDx=0;entryDy=0;" parent="1" source="x2EQDOQUz10aYYluBtPl-78" target="x2EQDOQUz10aYYluBtPl-6" edge="1">
          <mxGeometry width="50" height="50" relative="1" as="geometry">
            <mxPoint x="410" y="930" as="sourcePoint" />
            <mxPoint x="300" y="130" as="targetPoint" />
          </mxGeometry>
        </mxCell>
        <mxCell id="x2EQDOQUz10aYYluBtPl-11" value="" style="endArrow=none;dashed=1;html=1;rounded=0;entryX=0.5;entryY=1;entryDx=0;entryDy=0;" parent="1" target="x2EQDOQUz10aYYluBtPl-7" edge="1">
          <mxGeometry width="50" height="50" relative="1" as="geometry">
            <mxPoint x="750" y="1800" as="sourcePoint" />
            <mxPoint x="310" y="140" as="targetPoint" />
          </mxGeometry>
        </mxCell>
        <mxCell id="x2EQDOQUz10aYYluBtPl-23" value="Service" style="rounded=0;whiteSpace=wrap;html=1;" parent="1" vertex="1">
          <mxGeometry x="520" y="40" width="120" height="60" as="geometry" />
        </mxCell>
        <mxCell id="x2EQDOQUz10aYYluBtPl-24" value="" style="endArrow=none;dashed=1;html=1;rounded=0;entryX=0.5;entryY=1;entryDx=0;entryDy=0;" parent="1" source="x2EQDOQUz10aYYluBtPl-51" target="x2EQDOQUz10aYYluBtPl-23" edge="1">
          <mxGeometry width="50" height="50" relative="1" as="geometry">
            <mxPoint x="580" y="640" as="sourcePoint" />
            <mxPoint x="420" y="110" as="targetPoint" />
          </mxGeometry>
        </mxCell>
        <mxCell id="x2EQDOQUz10aYYluBtPl-25" value="" style="endArrow=classic;html=1;rounded=0;" parent="1" edge="1">
          <mxGeometry width="50" height="50" relative="1" as="geometry">
            <mxPoint x="60" y="160" as="sourcePoint" />
            <mxPoint x="240" y="160" as="targetPoint" />
          </mxGeometry>
        </mxCell>
        <mxCell id="x2EQDOQUz10aYYluBtPl-26" value="Create CV request" style="text;html=1;align=center;verticalAlign=middle;whiteSpace=wrap;rounded=0;" parent="1" vertex="1">
          <mxGeometry x="90" y="130" width="110" height="30" as="geometry" />
        </mxCell>
        <mxCell id="x2EQDOQUz10aYYluBtPl-28" value="" style="endArrow=classic;html=1;rounded=0;" parent="1" edge="1">
          <mxGeometry width="50" height="50" relative="1" as="geometry">
            <mxPoint x="235" y="209" as="sourcePoint" />
            <mxPoint x="405" y="209" as="targetPoint" />
          </mxGeometry>
        </mxCell>
        <mxCell id="x2EQDOQUz10aYYluBtPl-29" value="Fill in all information correctly" style="text;html=1;align=center;verticalAlign=middle;whiteSpace=wrap;rounded=0;" parent="1" vertex="1">
          <mxGeometry x="245" y="180" width="150" height="30" as="geometry" />
        </mxCell>
        <mxCell id="x2EQDOQUz10aYYluBtPl-30" value="Alternative" style="shape=umlFrame;whiteSpace=wrap;html=1;pointerEvents=0;" parent="1" vertex="1">
          <mxGeometry x="-90" y="180" width="870" height="220" as="geometry" />
        </mxCell>
        <mxCell id="x2EQDOQUz10aYYluBtPl-31" value="" style="endArrow=classic;html=1;rounded=0;" parent="1" edge="1">
          <mxGeometry width="50" height="50" relative="1" as="geometry">
            <mxPoint x="410" y="219.5" as="sourcePoint" />
            <mxPoint x="580" y="219.5" as="targetPoint" />
            <Array as="points">
              <mxPoint x="550" y="219.5" />
            </Array>
          </mxGeometry>
        </mxCell>
        <mxCell id="x2EQDOQUz10aYYluBtPl-34" value="satisfy the conditions" style="text;html=1;align=center;verticalAlign=middle;whiteSpace=wrap;rounded=0;" parent="1" vertex="1">
          <mxGeometry x="-80" y="210" width="120" height="30" as="geometry" />
        </mxCell>
        <mxCell id="x2EQDOQUz10aYYluBtPl-35" value="" style="endArrow=none;dashed=1;html=1;dashPattern=1 3;strokeWidth=2;rounded=0;exitX=0;exitY=0.4;exitDx=0;exitDy=0;exitPerimeter=0;entryX=0.998;entryY=0.52;entryDx=0;entryDy=0;entryPerimeter=0;" parent="1" edge="1">
          <mxGeometry width="50" height="50" relative="1" as="geometry">
            <mxPoint x="-90" y="311.2" as="sourcePoint" />
            <mxPoint x="778.2600000000002" y="310.00000000000006" as="targetPoint" />
          </mxGeometry>
        </mxCell>
        <mxCell id="x2EQDOQUz10aYYluBtPl-36" value="&lt;div&gt;not satisfy the condition&lt;br&gt;&lt;/div&gt;" style="text;html=1;align=center;verticalAlign=middle;whiteSpace=wrap;rounded=0;" parent="1" vertex="1">
          <mxGeometry x="-80" y="311.2" width="120" height="30" as="geometry" />
        </mxCell>
        <mxCell id="x2EQDOQUz10aYYluBtPl-38" value="" style="endArrow=block;dashed=1;endFill=0;endSize=12;html=1;rounded=0;" parent="1" edge="1">
          <mxGeometry width="160" relative="1" as="geometry">
            <mxPoint x="410" y="341.2" as="sourcePoint" />
            <mxPoint x="240" y="341.2" as="targetPoint" />
          </mxGeometry>
        </mxCell>
        <mxCell id="x2EQDOQUz10aYYluBtPl-40" value="incorrect information" style="text;whiteSpace=wrap;align=center;" parent="1" vertex="1">
          <mxGeometry x="260" y="311.2" width="140" height="20" as="geometry" />
        </mxCell>
        <mxCell id="x2EQDOQUz10aYYluBtPl-41" value="" style="endArrow=block;dashed=1;endFill=0;endSize=12;html=1;rounded=0;" parent="1" edge="1">
          <mxGeometry width="160" relative="1" as="geometry">
            <mxPoint x="240" y="361.2" as="sourcePoint" />
            <mxPoint x="50" y="361.2" as="targetPoint" />
          </mxGeometry>
        </mxCell>
        <mxCell id="x2EQDOQUz10aYYluBtPl-42" value="Cannot create CV" style="text;html=1;align=center;verticalAlign=middle;whiteSpace=wrap;rounded=0;" parent="1" vertex="1">
          <mxGeometry x="80" y="321.2" width="130" height="30" as="geometry" />
        </mxCell>
        <mxCell id="x2EQDOQUz10aYYluBtPl-44" value="" style="endArrow=classic;html=1;rounded=0;" parent="1" edge="1">
          <mxGeometry width="50" height="50" relative="1" as="geometry">
            <mxPoint x="580" y="230.75" as="sourcePoint" />
            <mxPoint x="750" y="230.75" as="targetPoint" />
          </mxGeometry>
        </mxCell>
        <mxCell id="x2EQDOQUz10aYYluBtPl-45" value="Call create CV function" style="text;html=1;align=center;verticalAlign=middle;whiteSpace=wrap;rounded=0;" parent="1" vertex="1">
          <mxGeometry x="440" y="180" width="130" height="30" as="geometry" />
        </mxCell>
        <mxCell id="x2EQDOQUz10aYYluBtPl-46" value="Save CV" style="text;html=1;align=center;verticalAlign=middle;whiteSpace=wrap;rounded=0;" parent="1" vertex="1">
          <mxGeometry x="610" y="190" width="90" height="30" as="geometry" />
        </mxCell>
        <mxCell id="x2EQDOQUz10aYYluBtPl-48" value="" style="endArrow=none;dashed=1;html=1;rounded=0;entryX=0.5;entryY=1;entryDx=0;entryDy=0;" parent="1" target="x2EQDOQUz10aYYluBtPl-47" edge="1">
          <mxGeometry width="50" height="50" relative="1" as="geometry">
            <mxPoint x="240" y="1800" as="sourcePoint" />
            <mxPoint x="240" y="100" as="targetPoint" />
          </mxGeometry>
        </mxCell>
        <mxCell id="x2EQDOQUz10aYYluBtPl-47" value="" style="html=1;points=[[0,0,0,0,5],[0,1,0,0,-5],[1,0,0,0,5],[1,1,0,0,-5]];perimeter=orthogonalPerimeter;outlineConnect=0;targetShapes=umlLifeline;portConstraint=eastwest;newEdgeStyle={&quot;curved&quot;:0,&quot;rounded&quot;:0};" parent="1" vertex="1">
          <mxGeometry x="235" y="145" width="10" height="225" as="geometry" />
        </mxCell>
        <mxCell id="x2EQDOQUz10aYYluBtPl-50" value="" style="html=1;points=[[0,0,0,0,5],[0,1,0,0,-5],[1,0,0,0,5],[1,1,0,0,-5]];perimeter=orthogonalPerimeter;outlineConnect=0;targetShapes=umlLifeline;portConstraint=eastwest;newEdgeStyle={&quot;curved&quot;:0,&quot;rounded&quot;:0};" parent="1" vertex="1">
          <mxGeometry x="405" y="200" width="10" height="40" as="geometry" />
        </mxCell>
        <mxCell id="x2EQDOQUz10aYYluBtPl-52" value="" style="endArrow=none;dashed=1;html=1;rounded=0;entryX=0.5;entryY=1;entryDx=0;entryDy=0;" parent="1" source="x2EQDOQUz10aYYluBtPl-80" target="x2EQDOQUz10aYYluBtPl-51" edge="1">
          <mxGeometry width="50" height="50" relative="1" as="geometry">
            <mxPoint x="580" y="930" as="sourcePoint" />
            <mxPoint x="580" y="100" as="targetPoint" />
          </mxGeometry>
        </mxCell>
        <mxCell id="x2EQDOQUz10aYYluBtPl-51" value="" style="html=1;points=[[0,0,0,0,5],[0,1,0,0,-5],[1,0,0,0,5],[1,1,0,0,-5]];perimeter=orthogonalPerimeter;outlineConnect=0;targetShapes=umlLifeline;portConstraint=eastwest;newEdgeStyle={&quot;curved&quot;:0,&quot;rounded&quot;:0};" parent="1" vertex="1">
          <mxGeometry x="580" y="200" width="10" height="90" as="geometry" />
        </mxCell>
        <mxCell id="x2EQDOQUz10aYYluBtPl-53" value="CRUD CV OF CANDIDATE" style="text;html=1;align=center;verticalAlign=middle;whiteSpace=wrap;rounded=0;" parent="1" vertex="1">
          <mxGeometry x="-110" y="10" width="160" height="30" as="geometry" />
        </mxCell>
        <mxCell id="x2EQDOQUz10aYYluBtPl-55" value="" style="endArrow=classic;html=1;rounded=0;" parent="1" edge="1">
          <mxGeometry width="50" height="50" relative="1" as="geometry">
            <mxPoint x="52.5" y="550" as="sourcePoint" />
            <mxPoint x="242.5" y="550" as="targetPoint" />
          </mxGeometry>
        </mxCell>
        <mxCell id="x2EQDOQUz10aYYluBtPl-56" value="Update CV request" style="text;html=1;align=center;verticalAlign=middle;whiteSpace=wrap;rounded=0;" parent="1" vertex="1">
          <mxGeometry x="72.5" y="510" width="140" height="30" as="geometry" />
        </mxCell>
        <mxCell id="x2EQDOQUz10aYYluBtPl-57" value="" style="endArrow=classic;html=1;rounded=0;" parent="1" edge="1">
          <mxGeometry width="50" height="50" relative="1" as="geometry">
            <mxPoint x="240" y="590" as="sourcePoint" />
            <mxPoint x="410" y="590" as="targetPoint" />
          </mxGeometry>
        </mxCell>
        <mxCell id="x2EQDOQUz10aYYluBtPl-58" value="Check CV has been created and correct constraints" style="text;html=1;align=center;verticalAlign=middle;whiteSpace=wrap;rounded=0;" parent="1" vertex="1">
          <mxGeometry x="247.5" y="553.75" width="155" height="50" as="geometry" />
        </mxCell>
        <mxCell id="x2EQDOQUz10aYYluBtPl-59" value="Alternative" style="shape=umlFrame;whiteSpace=wrap;html=1;pointerEvents=0;" parent="1" vertex="1">
          <mxGeometry x="-87.5" y="560" width="877.5" height="270" as="geometry" />
        </mxCell>
        <mxCell id="x2EQDOQUz10aYYluBtPl-61" value="" style="endArrow=none;dashed=1;html=1;dashPattern=1 3;strokeWidth=2;rounded=0;exitX=0.008;exitY=0.499;exitDx=0;exitDy=0;exitPerimeter=0;entryX=1.007;entryY=0.51;entryDx=0;entryDy=0;entryPerimeter=0;" parent="1" source="x2EQDOQUz10aYYluBtPl-59" target="x2EQDOQUz10aYYluBtPl-59" edge="1">
          <mxGeometry width="50" height="50" relative="1" as="geometry">
            <mxPoint x="-87.5" y="629" as="sourcePoint" />
            <mxPoint x="432.5" y="629" as="targetPoint" />
          </mxGeometry>
        </mxCell>
        <mxCell id="x2EQDOQUz10aYYluBtPl-62" value="satisfy the conditions&lt;span style=&quot;color: rgba(0, 0, 0, 0); font-family: monospace; font-size: 0px; text-align: start; text-wrap: nowrap;&quot;&gt;3CmxGraphModel%3E%3Croot%3E%3CmxCell%20id%3D%220%22%2F%3E%3CmxCell%20id%3D%221%22%20parent%3D%220%22%2F%3E%3CmxCell%20id%3D%222%22%20value%3D%22satisfy%20the%20conditions%22%20style%3D%22text%3Bhtml%3D1%3Balign%3Dcenter%3BverticalAlign%3Dmiddle%3BwhiteSpace%3Dwrap%3Brounded%3D0%3B%22%20vertex%3D%221%22%20parent%3D%221%22%3E%3CmxGeometry%20x%3D%22-80%22%20y%3D%22210%22%20width%3D%22120%22%20height%3D%2230%22%20as%3D%22geometry%22%2F%3E%3C%2FmxCell%3E%3C%2Froot%3E%3C%2FmxGraphModel%3E&lt;/span&gt;" style="text;html=1;align=center;verticalAlign=middle;whiteSpace=wrap;rounded=0;" parent="1" vertex="1">
          <mxGeometry x="-77.5" y="590" width="117.5" height="30" as="geometry" />
        </mxCell>
        <mxCell id="x2EQDOQUz10aYYluBtPl-63" value="&lt;div&gt;not satisfy the condition&lt;br&gt;&lt;/div&gt;" style="text;html=1;align=center;verticalAlign=middle;whiteSpace=wrap;rounded=0;" parent="1" vertex="1">
          <mxGeometry x="-85" y="715" width="125" height="30" as="geometry" />
        </mxCell>
        <mxCell id="x2EQDOQUz10aYYluBtPl-64" value="" style="endArrow=classic;html=1;rounded=0;" parent="1" edge="1">
          <mxGeometry width="50" height="50" relative="1" as="geometry">
            <mxPoint x="417.5" y="610" as="sourcePoint" />
            <mxPoint x="582.5" y="610" as="targetPoint" />
          </mxGeometry>
        </mxCell>
        <mxCell id="x2EQDOQUz10aYYluBtPl-65" value="not satisfy the condition" style="text;html=1;align=center;verticalAlign=middle;whiteSpace=wrap;rounded=0;" parent="1" vertex="1">
          <mxGeometry x="245" y="715" width="150" height="30" as="geometry" />
        </mxCell>
        <mxCell id="x2EQDOQUz10aYYluBtPl-68" value="Update CV" style="text;html=1;align=center;verticalAlign=middle;whiteSpace=wrap;rounded=0;" parent="1" vertex="1">
          <mxGeometry x="602.5" y="580" width="130" height="30" as="geometry" />
        </mxCell>
        <mxCell id="x2EQDOQUz10aYYluBtPl-69" value="" style="endArrow=classic;html=1;rounded=0;" parent="1" edge="1">
          <mxGeometry width="50" height="50" relative="1" as="geometry">
            <mxPoint x="582.5" y="620" as="sourcePoint" />
            <mxPoint x="747.5" y="620" as="targetPoint" />
          </mxGeometry>
        </mxCell>
        <mxCell id="x2EQDOQUz10aYYluBtPl-70" value="Call update CV function" style="text;html=1;align=center;verticalAlign=middle;whiteSpace=wrap;rounded=0;" parent="1" vertex="1">
          <mxGeometry x="442.5" y="580" width="130" height="30" as="geometry" />
        </mxCell>
        <mxCell id="x2EQDOQUz10aYYluBtPl-72" value="" style="endArrow=block;dashed=1;endFill=0;endSize=12;html=1;rounded=0;" parent="1" edge="1">
          <mxGeometry width="160" relative="1" as="geometry">
            <mxPoint x="235" y="775" as="sourcePoint" />
            <mxPoint x="45" y="775" as="targetPoint" />
          </mxGeometry>
        </mxCell>
        <mxCell id="x2EQDOQUz10aYYluBtPl-73" value="Cannot update CV" style="text;html=1;align=center;verticalAlign=middle;whiteSpace=wrap;rounded=0;" parent="1" vertex="1">
          <mxGeometry x="70" y="735" width="130" height="30" as="geometry" />
        </mxCell>
        <mxCell id="x2EQDOQUz10aYYluBtPl-74" value="" style="endArrow=classic;html=1;rounded=0;" parent="1" edge="1">
          <mxGeometry width="50" height="50" relative="1" as="geometry">
            <mxPoint x="55" y="1020" as="sourcePoint" />
            <mxPoint x="235" y="1020" as="targetPoint" />
          </mxGeometry>
        </mxCell>
        <mxCell id="x2EQDOQUz10aYYluBtPl-76" value="" style="endArrow=block;dashed=1;endFill=0;endSize=12;html=1;rounded=0;" parent="1" edge="1">
          <mxGeometry width="160" relative="1" as="geometry">
            <mxPoint x="405" y="755" as="sourcePoint" />
            <mxPoint x="240" y="755" as="targetPoint" />
          </mxGeometry>
        </mxCell>
        <mxCell id="x2EQDOQUz10aYYluBtPl-75" value="" style="html=1;points=[[0,0,0,0,5],[0,1,0,0,-5],[1,0,0,0,5],[1,1,0,0,-5]];perimeter=orthogonalPerimeter;outlineConnect=0;targetShapes=umlLifeline;portConstraint=eastwest;newEdgeStyle={&quot;curved&quot;:0,&quot;rounded&quot;:0};" parent="1" vertex="1">
          <mxGeometry x="237.5" y="530" width="10" height="270" as="geometry" />
        </mxCell>
        <mxCell id="x2EQDOQUz10aYYluBtPl-79" value="" style="endArrow=none;dashed=1;html=1;rounded=0;entryX=0.5;entryY=1;entryDx=0;entryDy=0;" parent="1" target="x2EQDOQUz10aYYluBtPl-78" edge="1">
          <mxGeometry width="50" height="50" relative="1" as="geometry">
            <mxPoint x="410" y="1800" as="sourcePoint" />
            <mxPoint x="410" y="100" as="targetPoint" />
          </mxGeometry>
        </mxCell>
        <mxCell id="x2EQDOQUz10aYYluBtPl-78" value="" style="html=1;points=[[0,0,0,0,5],[0,1,0,0,-5],[1,0,0,0,5],[1,1,0,0,-5]];perimeter=orthogonalPerimeter;outlineConnect=0;targetShapes=umlLifeline;portConstraint=eastwest;newEdgeStyle={&quot;curved&quot;:0,&quot;rounded&quot;:0};" parent="1" vertex="1">
          <mxGeometry x="407.5" y="570" width="10" height="60" as="geometry" />
        </mxCell>
        <mxCell id="x2EQDOQUz10aYYluBtPl-81" value="" style="endArrow=none;dashed=1;html=1;rounded=0;entryX=0.5;entryY=1;entryDx=0;entryDy=0;" parent="1" target="x2EQDOQUz10aYYluBtPl-80" edge="1">
          <mxGeometry width="50" height="50" relative="1" as="geometry">
            <mxPoint x="585" y="1800" as="sourcePoint" />
            <mxPoint x="585" y="240" as="targetPoint" />
          </mxGeometry>
        </mxCell>
        <mxCell id="x2EQDOQUz10aYYluBtPl-80" value="" style="html=1;points=[[0,0,0,0,5],[0,1,0,0,-5],[1,0,0,0,5],[1,1,0,0,-5]];perimeter=orthogonalPerimeter;outlineConnect=0;targetShapes=umlLifeline;portConstraint=eastwest;newEdgeStyle={&quot;curved&quot;:0,&quot;rounded&quot;:0};" parent="1" vertex="1">
          <mxGeometry x="582.5" y="590" width="10" height="90" as="geometry" />
        </mxCell>
        <mxCell id="x2EQDOQUz10aYYluBtPl-82" value="" style="endArrow=classic;html=1;rounded=0;" parent="1" edge="1">
          <mxGeometry width="50" height="50" relative="1" as="geometry">
            <mxPoint x="242.5" y="1060" as="sourcePoint" />
            <mxPoint x="407.5" y="1060" as="targetPoint" />
          </mxGeometry>
        </mxCell>
        <mxCell id="x2EQDOQUz10aYYluBtPl-83" value="&lt;span style=&quot;color: rgb(0, 0, 0); font-family: Helvetica; font-size: 12px; font-style: normal; font-variant-ligatures: normal; font-variant-caps: normal; font-weight: 400; letter-spacing: normal; orphans: 2; text-indent: 0px; text-transform: none; widows: 2; word-spacing: 0px; -webkit-text-stroke-width: 0px; white-space: normal; background-color: rgb(251, 251, 251); text-decoration-thickness: initial; text-decoration-style: initial; text-decoration-color: initial; float: none; display: inline !important;&quot;&gt;Search job request&lt;/span&gt;" style="text;whiteSpace=wrap;html=1;align=center;" parent="1" vertex="1">
          <mxGeometry x="80" y="970" width="140" height="40" as="geometry" />
        </mxCell>
        <mxCell id="x2EQDOQUz10aYYluBtPl-85" value="Filter by salary, working hours, job type" style="text;html=1;align=center;verticalAlign=middle;whiteSpace=wrap;rounded=0;" parent="1" vertex="1">
          <mxGeometry x="252.5" y="1010" width="140" height="30" as="geometry" />
        </mxCell>
        <mxCell id="x2EQDOQUz10aYYluBtPl-86" value="" style="endArrow=classic;html=1;rounded=0;" parent="1" edge="1">
          <mxGeometry width="50" height="50" relative="1" as="geometry">
            <mxPoint x="415" y="1080" as="sourcePoint" />
            <mxPoint x="580" y="1080" as="targetPoint" />
          </mxGeometry>
        </mxCell>
        <mxCell id="x2EQDOQUz10aYYluBtPl-87" value="Call search job function" style="text;html=1;align=center;verticalAlign=middle;whiteSpace=wrap;rounded=0;" parent="1" vertex="1">
          <mxGeometry x="425" y="1040" width="140" height="30" as="geometry" />
        </mxCell>
        <mxCell id="x2EQDOQUz10aYYluBtPl-90" value="" style="endArrow=classic;html=1;rounded=0;" parent="1" edge="1">
          <mxGeometry width="50" height="50" relative="1" as="geometry">
            <mxPoint x="580" y="1100" as="sourcePoint" />
            <mxPoint x="745" y="1100" as="targetPoint" />
          </mxGeometry>
        </mxCell>
        <mxCell id="x2EQDOQUz10aYYluBtPl-91" value="search" style="text;html=1;align=center;verticalAlign=middle;whiteSpace=wrap;rounded=0;" parent="1" vertex="1">
          <mxGeometry x="600" y="1060" width="130" height="30" as="geometry" />
        </mxCell>
        <mxCell id="x2EQDOQUz10aYYluBtPl-93" value="Alternative" style="shape=umlFrame;whiteSpace=wrap;html=1;pointerEvents=0;" parent="1" vertex="1">
          <mxGeometry x="-90" y="1140" width="870" height="200" as="geometry" />
        </mxCell>
        <mxCell id="x2EQDOQUz10aYYluBtPl-94" value="" style="endArrow=none;dashed=1;html=1;dashPattern=1 3;strokeWidth=2;rounded=0;exitX=0.003;exitY=0.437;exitDx=0;exitDy=0;exitPerimeter=0;entryX=0.997;entryY=0.509;entryDx=0;entryDy=0;entryPerimeter=0;" parent="1" source="x2EQDOQUz10aYYluBtPl-93" edge="1">
          <mxGeometry width="50" height="50" relative="1" as="geometry">
            <mxPoint x="-87.94" y="1210" as="sourcePoint" />
            <mxPoint x="777.9499999999998" y="1227.3899999999999" as="targetPoint" />
          </mxGeometry>
        </mxCell>
        <mxCell id="x2EQDOQUz10aYYluBtPl-99" value="job not found" style="text;html=1;align=center;verticalAlign=middle;whiteSpace=wrap;rounded=0;" parent="1" vertex="1">
          <mxGeometry x="-90" y="1180" width="100" height="30" as="geometry" />
        </mxCell>
        <mxCell id="x2EQDOQUz10aYYluBtPl-100" value="job found" style="text;html=1;align=center;verticalAlign=middle;whiteSpace=wrap;rounded=0;" parent="1" vertex="1">
          <mxGeometry x="-90" y="1240" width="100" height="30" as="geometry" />
        </mxCell>
        <mxCell id="x2EQDOQUz10aYYluBtPl-101" value="" style="endArrow=block;dashed=1;endFill=0;endSize=12;html=1;rounded=0;" parent="1" source="x2EQDOQUz10aYYluBtPl-154" edge="1">
          <mxGeometry width="160" relative="1" as="geometry">
            <mxPoint x="747.5" y="1170" as="sourcePoint" />
            <mxPoint x="582.5" y="1170" as="targetPoint" />
          </mxGeometry>
        </mxCell>
        <mxCell id="x2EQDOQUz10aYYluBtPl-102" value="Not found" style="text;html=1;align=center;verticalAlign=middle;whiteSpace=wrap;rounded=0;" parent="1" vertex="1">
          <mxGeometry x="610" y="1150" width="130" height="20" as="geometry" />
        </mxCell>
        <mxCell id="x2EQDOQUz10aYYluBtPl-103" value="" style="endArrow=block;dashed=1;endFill=0;endSize=12;html=1;rounded=0;" parent="1" edge="1">
          <mxGeometry width="160" relative="1" as="geometry">
            <mxPoint x="580" y="1190" as="sourcePoint" />
            <mxPoint x="240" y="1190" as="targetPoint" />
          </mxGeometry>
        </mxCell>
        <mxCell id="x2EQDOQUz10aYYluBtPl-104" value="Not found" style="text;html=1;align=center;verticalAlign=middle;whiteSpace=wrap;rounded=0;" parent="1" vertex="1">
          <mxGeometry x="260" y="1150" width="130" height="20" as="geometry" />
        </mxCell>
        <mxCell id="x2EQDOQUz10aYYluBtPl-108" value="" style="endArrow=block;dashed=1;endFill=0;endSize=12;html=1;rounded=0;" parent="1" edge="1">
          <mxGeometry width="160" relative="1" as="geometry">
            <mxPoint x="240" y="1208.82" as="sourcePoint" />
            <mxPoint x="50" y="1208.82" as="targetPoint" />
          </mxGeometry>
        </mxCell>
        <mxCell id="x2EQDOQUz10aYYluBtPl-109" value="Not found" style="text;html=1;align=center;verticalAlign=middle;whiteSpace=wrap;rounded=0;" parent="1" vertex="1">
          <mxGeometry x="85" y="1180" width="130" height="20" as="geometry" />
        </mxCell>
        <mxCell id="x2EQDOQUz10aYYluBtPl-111" value="" style="endArrow=block;dashed=1;endFill=0;endSize=12;html=1;rounded=0;" parent="1" edge="1">
          <mxGeometry width="160" relative="1" as="geometry">
            <mxPoint x="747.5" y="1260" as="sourcePoint" />
            <mxPoint x="582.5" y="1260" as="targetPoint" />
          </mxGeometry>
        </mxCell>
        <mxCell id="x2EQDOQUz10aYYluBtPl-112" value="Job Found" style="text;html=1;align=center;verticalAlign=middle;whiteSpace=wrap;rounded=0;" parent="1" vertex="1">
          <mxGeometry x="610" y="1270" width="130" height="20" as="geometry" />
        </mxCell>
        <mxCell id="x2EQDOQUz10aYYluBtPl-113" value="" style="endArrow=block;dashed=1;endFill=0;endSize=12;html=1;rounded=0;" parent="1" edge="1">
          <mxGeometry width="160" relative="1" as="geometry">
            <mxPoint x="585" y="1279.41" as="sourcePoint" />
            <mxPoint x="245" y="1279.41" as="targetPoint" />
          </mxGeometry>
        </mxCell>
        <mxCell id="x2EQDOQUz10aYYluBtPl-114" value="List job" style="text;html=1;align=center;verticalAlign=middle;whiteSpace=wrap;rounded=0;" parent="1" vertex="1">
          <mxGeometry x="237.5" y="1250" width="130" height="20" as="geometry" />
        </mxCell>
        <mxCell id="x2EQDOQUz10aYYluBtPl-115" value="" style="endArrow=block;dashed=1;endFill=0;endSize=12;html=1;rounded=0;" parent="1" edge="1">
          <mxGeometry width="160" relative="1" as="geometry">
            <mxPoint x="240" y="1300" as="sourcePoint" />
            <mxPoint x="50" y="1300" as="targetPoint" />
          </mxGeometry>
        </mxCell>
        <mxCell id="x2EQDOQUz10aYYluBtPl-116" value="List job" style="text;html=1;align=center;verticalAlign=middle;whiteSpace=wrap;rounded=0;" parent="1" vertex="1">
          <mxGeometry x="80" y="1260" width="130" height="20" as="geometry" />
        </mxCell>
        <mxCell id="x2EQDOQUz10aYYluBtPl-117" value="" style="endArrow=block;dashed=1;endFill=0;endSize=12;html=1;rounded=0;" parent="1" edge="1">
          <mxGeometry width="160" relative="1" as="geometry">
            <mxPoint x="750" y="260" as="sourcePoint" />
            <mxPoint x="585" y="260" as="targetPoint" />
          </mxGeometry>
        </mxCell>
        <mxCell id="x2EQDOQUz10aYYluBtPl-138" value="&lt;span style=&quot;color: rgb(0, 0, 0); font-family: Helvetica; font-size: 12px; font-style: normal; font-variant-ligatures: normal; font-variant-caps: normal; font-weight: 400; letter-spacing: normal; orphans: 2; text-indent: 0px; text-transform: none; widows: 2; word-spacing: 0px; -webkit-text-stroke-width: 0px; white-space: normal; background-color: rgb(251, 251, 251); text-decoration-thickness: initial; text-decoration-style: initial; text-decoration-color: initial; float: none; display: inline !important;&quot;&gt;Saved&amp;nbsp;&lt;/span&gt;" style="text;whiteSpace=wrap;html=1;align=center;" parent="1" vertex="1">
          <mxGeometry x="635" y="260" width="80" height="20" as="geometry" />
        </mxCell>
        <mxCell id="x2EQDOQUz10aYYluBtPl-139" value="" style="endArrow=block;dashed=1;endFill=0;endSize=12;html=1;rounded=0;" parent="1" edge="1">
          <mxGeometry width="160" relative="1" as="geometry">
            <mxPoint x="582.5" y="274.40999999999997" as="sourcePoint" />
            <mxPoint x="242.5" y="274.40999999999997" as="targetPoint" />
          </mxGeometry>
        </mxCell>
        <mxCell id="x2EQDOQUz10aYYluBtPl-140" value="&lt;span style=&quot;color: rgb(0, 0, 0); font-family: Helvetica; font-size: 12px; font-style: normal; font-variant-ligatures: normal; font-variant-caps: normal; font-weight: 400; letter-spacing: normal; orphans: 2; text-indent: 0px; text-transform: none; widows: 2; word-spacing: 0px; -webkit-text-stroke-width: 0px; white-space: normal; background-color: rgb(251, 251, 251); text-decoration-thickness: initial; text-decoration-style: initial; text-decoration-color: initial; float: none; display: inline !important;&quot;&gt;Saved&amp;nbsp;&lt;/span&gt;" style="text;whiteSpace=wrap;html=1;align=center;" parent="1" vertex="1">
          <mxGeometry x="455" y="240" width="80" height="20" as="geometry" />
        </mxCell>
        <mxCell id="x2EQDOQUz10aYYluBtPl-141" value="" style="endArrow=block;dashed=1;endFill=0;endSize=12;html=1;rounded=0;" parent="1" edge="1">
          <mxGeometry width="160" relative="1" as="geometry">
            <mxPoint x="240" y="290" as="sourcePoint" />
            <mxPoint x="50" y="290" as="targetPoint" />
          </mxGeometry>
        </mxCell>
        <mxCell id="x2EQDOQUz10aYYluBtPl-142" value="&lt;span style=&quot;color: rgb(0, 0, 0); font-family: Helvetica; font-size: 12px; font-style: normal; font-variant-ligatures: normal; font-variant-caps: normal; font-weight: 400; letter-spacing: normal; orphans: 2; text-indent: 0px; text-transform: none; widows: 2; word-spacing: 0px; -webkit-text-stroke-width: 0px; white-space: normal; background-color: rgb(251, 251, 251); text-decoration-thickness: initial; text-decoration-style: initial; text-decoration-color: initial; float: none; display: inline !important;&quot;&gt;Created&lt;/span&gt;" style="text;whiteSpace=wrap;html=1;align=center;" parent="1" vertex="1">
          <mxGeometry x="105" y="260" width="80" height="20" as="geometry" />
        </mxCell>
        <mxCell id="x2EQDOQUz10aYYluBtPl-143" value="" style="endArrow=block;dashed=1;endFill=0;endSize=12;html=1;rounded=0;" parent="1" edge="1">
          <mxGeometry width="160" relative="1" as="geometry">
            <mxPoint x="750" y="650" as="sourcePoint" />
            <mxPoint x="585" y="650" as="targetPoint" />
          </mxGeometry>
        </mxCell>
        <mxCell id="x2EQDOQUz10aYYluBtPl-144" value="&lt;span style=&quot;color: rgb(0, 0, 0); font-family: Helvetica; font-size: 12px; font-style: normal; font-variant-ligatures: normal; font-variant-caps: normal; font-weight: 400; letter-spacing: normal; orphans: 2; text-indent: 0px; text-transform: none; widows: 2; word-spacing: 0px; -webkit-text-stroke-width: 0px; white-space: normal; background-color: rgb(251, 251, 251); text-decoration-thickness: initial; text-decoration-style: initial; text-decoration-color: initial; float: none; display: inline !important;&quot;&gt;Updated&lt;/span&gt;" style="text;whiteSpace=wrap;html=1;align=center;" parent="1" vertex="1">
          <mxGeometry x="625" y="656.88" width="80" height="20" as="geometry" />
        </mxCell>
        <mxCell id="x2EQDOQUz10aYYluBtPl-145" value="" style="endArrow=block;dashed=1;endFill=0;endSize=12;html=1;rounded=0;" parent="1" edge="1">
          <mxGeometry width="160" relative="1" as="geometry">
            <mxPoint x="585" y="666.29" as="sourcePoint" />
            <mxPoint x="245" y="666.29" as="targetPoint" />
          </mxGeometry>
        </mxCell>
        <mxCell id="x2EQDOQUz10aYYluBtPl-146" value="&lt;span style=&quot;color: rgb(0, 0, 0); font-family: Helvetica; font-size: 12px; font-style: normal; font-variant-ligatures: normal; font-variant-caps: normal; font-weight: 400; letter-spacing: normal; orphans: 2; text-indent: 0px; text-transform: none; widows: 2; word-spacing: 0px; -webkit-text-stroke-width: 0px; white-space: normal; background-color: rgb(251, 251, 251); text-decoration-thickness: initial; text-decoration-style: initial; text-decoration-color: initial; float: none; display: inline !important;&quot;&gt;Updated&lt;/span&gt;" style="text;whiteSpace=wrap;html=1;align=center;" parent="1" vertex="1">
          <mxGeometry x="455" y="630" width="80" height="20" as="geometry" />
        </mxCell>
        <mxCell id="x2EQDOQUz10aYYluBtPl-147" value="" style="endArrow=block;dashed=1;endFill=0;endSize=12;html=1;rounded=0;" parent="1" edge="1">
          <mxGeometry width="160" relative="1" as="geometry">
            <mxPoint x="240" y="680" as="sourcePoint" />
            <mxPoint x="50" y="680" as="targetPoint" />
          </mxGeometry>
        </mxCell>
        <mxCell id="x2EQDOQUz10aYYluBtPl-148" value="&lt;span style=&quot;color: rgb(0, 0, 0); font-family: Helvetica; font-size: 12px; font-style: normal; font-variant-ligatures: normal; font-variant-caps: normal; font-weight: 400; letter-spacing: normal; orphans: 2; text-indent: 0px; text-transform: none; widows: 2; word-spacing: 0px; -webkit-text-stroke-width: 0px; white-space: normal; background-color: rgb(251, 251, 251); text-decoration-thickness: initial; text-decoration-style: initial; text-decoration-color: initial; float: none; display: inline !important;&quot;&gt;Updated&lt;/span&gt;" style="text;whiteSpace=wrap;html=1;align=center;" parent="1" vertex="1">
          <mxGeometry x="102.5" y="640" width="80" height="20" as="geometry" />
        </mxCell>
        <mxCell id="x2EQDOQUz10aYYluBtPl-151" value="" style="html=1;points=[[0,0,0,0,5],[0,1,0,0,-5],[1,0,0,0,5],[1,1,0,0,-5]];perimeter=orthogonalPerimeter;outlineConnect=0;targetShapes=umlLifeline;portConstraint=eastwest;newEdgeStyle={&quot;curved&quot;:0,&quot;rounded&quot;:0};" parent="1" vertex="1">
          <mxGeometry x="235" y="1000" width="10" height="330" as="geometry" />
        </mxCell>
        <mxCell id="x2EQDOQUz10aYYluBtPl-152" value="" style="html=1;points=[[0,0,0,0,5],[0,1,0,0,-5],[1,0,0,0,5],[1,1,0,0,-5]];perimeter=orthogonalPerimeter;outlineConnect=0;targetShapes=umlLifeline;portConstraint=eastwest;newEdgeStyle={&quot;curved&quot;:0,&quot;rounded&quot;:0};" parent="1" vertex="1">
          <mxGeometry x="405" y="1040" width="10" height="60" as="geometry" />
        </mxCell>
        <mxCell id="x2EQDOQUz10aYYluBtPl-155" value="" style="endArrow=block;dashed=1;endFill=0;endSize=12;html=1;rounded=0;" parent="1" target="x2EQDOQUz10aYYluBtPl-154" edge="1">
          <mxGeometry width="160" relative="1" as="geometry">
            <mxPoint x="747.5" y="1170" as="sourcePoint" />
            <mxPoint x="582.5" y="1170" as="targetPoint" />
          </mxGeometry>
        </mxCell>
        <mxCell id="x2EQDOQUz10aYYluBtPl-154" value="" style="html=1;points=[[0,0,0,0,5],[0,1,0,0,-5],[1,0,0,0,5],[1,1,0,0,-5]];perimeter=orthogonalPerimeter;outlineConnect=0;targetShapes=umlLifeline;portConstraint=eastwest;newEdgeStyle={&quot;curved&quot;:0,&quot;rounded&quot;:0};" parent="1" vertex="1">
          <mxGeometry x="582.5" y="1070" width="10" height="220" as="geometry" />
        </mxCell>
        <mxCell id="x2EQDOQUz10aYYluBtPl-183" value="" style="endArrow=classic;html=1;rounded=0;" parent="1" edge="1">
          <mxGeometry width="50" height="50" relative="1" as="geometry">
            <mxPoint x="66.25" y="1460" as="sourcePoint" />
            <mxPoint x="246.25" y="1460" as="targetPoint" />
          </mxGeometry>
        </mxCell>
        <mxCell id="x2EQDOQUz10aYYluBtPl-184" value="Delete CV request" style="text;html=1;align=center;verticalAlign=middle;whiteSpace=wrap;rounded=0;" parent="1" vertex="1">
          <mxGeometry x="96.25" y="1430" width="110" height="30" as="geometry" />
        </mxCell>
        <mxCell id="x2EQDOQUz10aYYluBtPl-185" value="" style="endArrow=classic;html=1;rounded=0;" parent="1" edge="1">
          <mxGeometry width="50" height="50" relative="1" as="geometry">
            <mxPoint x="241.25" y="1509" as="sourcePoint" />
            <mxPoint x="411.25" y="1509" as="targetPoint" />
          </mxGeometry>
        </mxCell>
        <mxCell id="x2EQDOQUz10aYYluBtPl-186" value="check already exists" style="text;html=1;align=center;verticalAlign=middle;whiteSpace=wrap;rounded=0;" parent="1" vertex="1">
          <mxGeometry x="251.25" y="1480" width="150" height="30" as="geometry" />
        </mxCell>
        <mxCell id="x2EQDOQUz10aYYluBtPl-187" value="Alternative" style="shape=umlFrame;whiteSpace=wrap;html=1;pointerEvents=0;" parent="1" vertex="1">
          <mxGeometry x="-83.75" y="1480" width="870" height="220" as="geometry" />
        </mxCell>
        <mxCell id="x2EQDOQUz10aYYluBtPl-188" value="" style="endArrow=classic;html=1;rounded=0;" parent="1" edge="1">
          <mxGeometry width="50" height="50" relative="1" as="geometry">
            <mxPoint x="416.25" y="1519.5" as="sourcePoint" />
            <mxPoint x="586.25" y="1519.5" as="targetPoint" />
            <Array as="points">
              <mxPoint x="556.25" y="1519.5" />
            </Array>
          </mxGeometry>
        </mxCell>
        <mxCell id="x2EQDOQUz10aYYluBtPl-189" value="satisfy the conditions" style="text;html=1;align=center;verticalAlign=middle;whiteSpace=wrap;rounded=0;" parent="1" vertex="1">
          <mxGeometry x="-80" y="1510" width="120" height="30" as="geometry" />
        </mxCell>
        <mxCell id="x2EQDOQUz10aYYluBtPl-190" value="" style="endArrow=none;dashed=1;html=1;dashPattern=1 3;strokeWidth=2;rounded=0;exitX=0;exitY=0.4;exitDx=0;exitDy=0;exitPerimeter=0;entryX=0.998;entryY=0.52;entryDx=0;entryDy=0;entryPerimeter=0;" parent="1" edge="1">
          <mxGeometry width="50" height="50" relative="1" as="geometry">
            <mxPoint x="-83.75" y="1611.2" as="sourcePoint" />
            <mxPoint x="784.5100000000002" y="1610" as="targetPoint" />
          </mxGeometry>
        </mxCell>
        <mxCell id="x2EQDOQUz10aYYluBtPl-191" value="&lt;div&gt;not satisfy the condition&lt;br&gt;&lt;/div&gt;" style="text;html=1;align=center;verticalAlign=middle;whiteSpace=wrap;rounded=0;" parent="1" vertex="1">
          <mxGeometry x="-80" y="1611.2" width="120" height="30" as="geometry" />
        </mxCell>
        <mxCell id="x2EQDOQUz10aYYluBtPl-192" value="" style="endArrow=block;dashed=1;endFill=0;endSize=12;html=1;rounded=0;" parent="1" edge="1">
          <mxGeometry width="160" relative="1" as="geometry">
            <mxPoint x="416.25" y="1641.2" as="sourcePoint" />
            <mxPoint x="246.25" y="1641.2" as="targetPoint" />
          </mxGeometry>
        </mxCell>
        <mxCell id="x2EQDOQUz10aYYluBtPl-193" value="Not exists" style="text;whiteSpace=wrap;align=center;" parent="1" vertex="1">
          <mxGeometry x="262.5" y="1641.2" width="140" height="28.8" as="geometry" />
        </mxCell>
        <mxCell id="x2EQDOQUz10aYYluBtPl-194" value="" style="endArrow=block;dashed=1;endFill=0;endSize=12;html=1;rounded=0;" parent="1" edge="1">
          <mxGeometry width="160" relative="1" as="geometry">
            <mxPoint x="246.25" y="1661.2" as="sourcePoint" />
            <mxPoint x="56.25" y="1661.2" as="targetPoint" />
          </mxGeometry>
        </mxCell>
        <mxCell id="x2EQDOQUz10aYYluBtPl-195" value="Cannot delete CV" style="text;html=1;align=center;verticalAlign=middle;whiteSpace=wrap;rounded=0;" parent="1" vertex="1">
          <mxGeometry x="86.25" y="1621.2" width="130" height="30" as="geometry" />
        </mxCell>
        <mxCell id="x2EQDOQUz10aYYluBtPl-196" value="" style="endArrow=classic;html=1;rounded=0;" parent="1" edge="1">
          <mxGeometry width="50" height="50" relative="1" as="geometry">
            <mxPoint x="586.25" y="1530.75" as="sourcePoint" />
            <mxPoint x="756.25" y="1530.75" as="targetPoint" />
          </mxGeometry>
        </mxCell>
        <mxCell id="x2EQDOQUz10aYYluBtPl-197" value="Call delete CV function" style="text;html=1;align=center;verticalAlign=middle;whiteSpace=wrap;rounded=0;" parent="1" vertex="1">
          <mxGeometry x="446.25" y="1480" width="130" height="30" as="geometry" />
        </mxCell>
        <mxCell id="x2EQDOQUz10aYYluBtPl-198" value="Delete CV" style="text;html=1;align=center;verticalAlign=middle;whiteSpace=wrap;rounded=0;" parent="1" vertex="1">
          <mxGeometry x="616.25" y="1490" width="90" height="30" as="geometry" />
        </mxCell>
        <mxCell id="x2EQDOQUz10aYYluBtPl-199" value="" style="html=1;points=[[0,0,0,0,5],[0,1,0,0,-5],[1,0,0,0,5],[1,1,0,0,-5]];perimeter=orthogonalPerimeter;outlineConnect=0;targetShapes=umlLifeline;portConstraint=eastwest;newEdgeStyle={&quot;curved&quot;:0,&quot;rounded&quot;:0};" parent="1" vertex="1">
          <mxGeometry x="241.25" y="1445" width="10" height="225" as="geometry" />
        </mxCell>
        <mxCell id="x2EQDOQUz10aYYluBtPl-200" value="" style="html=1;points=[[0,0,0,0,5],[0,1,0,0,-5],[1,0,0,0,5],[1,1,0,0,-5]];perimeter=orthogonalPerimeter;outlineConnect=0;targetShapes=umlLifeline;portConstraint=eastwest;newEdgeStyle={&quot;curved&quot;:0,&quot;rounded&quot;:0};" parent="1" vertex="1">
          <mxGeometry x="411.25" y="1500" width="10" height="40" as="geometry" />
        </mxCell>
        <mxCell id="x2EQDOQUz10aYYluBtPl-201" value="" style="html=1;points=[[0,0,0,0,5],[0,1,0,0,-5],[1,0,0,0,5],[1,1,0,0,-5]];perimeter=orthogonalPerimeter;outlineConnect=0;targetShapes=umlLifeline;portConstraint=eastwest;newEdgeStyle={&quot;curved&quot;:0,&quot;rounded&quot;:0};" parent="1" vertex="1">
          <mxGeometry x="586.25" y="1500" width="10" height="90" as="geometry" />
        </mxCell>
        <mxCell id="x2EQDOQUz10aYYluBtPl-202" value="" style="endArrow=block;dashed=1;endFill=0;endSize=12;html=1;rounded=0;" parent="1" edge="1">
          <mxGeometry width="160" relative="1" as="geometry">
            <mxPoint x="756.25" y="1560" as="sourcePoint" />
            <mxPoint x="591.25" y="1560" as="targetPoint" />
          </mxGeometry>
        </mxCell>
        <mxCell id="x2EQDOQUz10aYYluBtPl-203" value="&lt;span style=&quot;color: rgb(0, 0, 0); font-family: Helvetica; font-size: 12px; font-style: normal; font-variant-ligatures: normal; font-variant-caps: normal; font-weight: 400; letter-spacing: normal; orphans: 2; text-indent: 0px; text-transform: none; widows: 2; word-spacing: 0px; -webkit-text-stroke-width: 0px; white-space: normal; background-color: rgb(251, 251, 251); text-decoration-thickness: initial; text-decoration-style: initial; text-decoration-color: initial; float: none; display: inline !important;&quot;&gt;Deleted&lt;/span&gt;" style="text;whiteSpace=wrap;html=1;align=center;" parent="1" vertex="1">
          <mxGeometry x="641.25" y="1560" width="80" height="20" as="geometry" />
        </mxCell>
        <mxCell id="x2EQDOQUz10aYYluBtPl-204" value="" style="endArrow=block;dashed=1;endFill=0;endSize=12;html=1;rounded=0;" parent="1" edge="1">
          <mxGeometry width="160" relative="1" as="geometry">
            <mxPoint x="588.75" y="1574.4099999999999" as="sourcePoint" />
            <mxPoint x="248.75" y="1574.4099999999999" as="targetPoint" />
          </mxGeometry>
        </mxCell>
        <mxCell id="x2EQDOQUz10aYYluBtPl-205" value="Deleted" style="text;whiteSpace=wrap;html=1;align=center;" parent="1" vertex="1">
          <mxGeometry x="461.25" y="1540" width="80" height="20" as="geometry" />
        </mxCell>
        <mxCell id="x2EQDOQUz10aYYluBtPl-206" value="" style="endArrow=block;dashed=1;endFill=0;endSize=12;html=1;rounded=0;" parent="1" edge="1">
          <mxGeometry width="160" relative="1" as="geometry">
            <mxPoint x="246.25" y="1590" as="sourcePoint" />
            <mxPoint x="56.25" y="1590" as="targetPoint" />
          </mxGeometry>
        </mxCell>
        <mxCell id="x2EQDOQUz10aYYluBtPl-207" value="&lt;span style=&quot;color: rgb(0, 0, 0); font-family: Helvetica; font-size: 12px; font-style: normal; font-variant-ligatures: normal; font-variant-caps: normal; font-weight: 400; letter-spacing: normal; orphans: 2; text-indent: 0px; text-transform: none; widows: 2; word-spacing: 0px; -webkit-text-stroke-width: 0px; white-space: normal; background-color: rgb(251, 251, 251); text-decoration-thickness: initial; text-decoration-style: initial; text-decoration-color: initial; float: none; display: inline !important;&quot;&gt;Deleted&lt;/span&gt;" style="text;whiteSpace=wrap;html=1;align=center;" parent="1" vertex="1">
          <mxGeometry x="111.25" y="1560" width="80" height="20" as="geometry" />
        </mxCell>
      </root>
    </mxGraphModel>
  </diagram>
</mxfile>
